# xmcd
#
# Track frame offsets:
#	150
#	11658
#	35163
#
# Disc length: 685 seconds
#
# Revision: 0
# Processed by: cddbd v1.5.2PL0 Copyright (c) Steve Scherf et al.
# Submitted via: audiograbber 1.83.01
#
DISCID=1f02ab03
DTITLE=Various Artist - Universal Music Country Sampler - July
DYEAR=2008
DGENRE=Country
TTITLE0=Willie Nelson - I'm A Worried Man
TTITLE1=Ryan Adams - Easy Plateau
TTITLE2=Sugarland - Something More
EXTD=
EXTT0=
EXTT1=
EXTT2=
PLAYORDER=
